<svg xmlns="http://www.w3.org/2000/svg" version="1.1" x="0" y="0" viewBox="0 0 12.5 13.7" xml:space="preserve"><style type="text/css">
	.st0{fill:none;stroke:#F2F2F2;stroke-width:0.5;stroke-miterlimit:10;}
</style><path class="st0" d="M2.5 9.1c2-1.8 6.9-1.5 9.7-2.1 -0.4-3.4-2.3-6-5.3-6.6C3.2-0.4 0.8 2.8 0.3 5.9c-0.6 3.8 1.6 6.8 4.7 7.4 2.7 0.5 7.4 0 7.2-4.6 -1.2 0.6-1.4 2-4.7 2.7C5.1 11.9 2.6 11.2 2.5 9.1zM3.3 3.7c0.5-0.8 1.6-1.5 2.8-1.4 0.4 0 0.9 0.1 1.3 0.3 1.2 0.6 2 1.8 2.3 3.4C8 6.3 3.6 7.5 2.8 6.1 2.5 5.6 2.6 4.9 3.3 3.7z"/></svg>