<svg xmlns="http://www.w3.org/2000/svg" version="1.1" x="0" y="0" viewBox="0 0 146.8 70" xml:space="preserve"><style type="text/css">
	.st0{fill-rule:evenodd;clip-rule:evenodd;fill:#FEFEFE;}
	.st1{fill-rule:evenodd;clip-rule:evenodd;fill:#4D4D4D;}
	.st2{fill-rule:evenodd;clip-rule:evenodd;fill:#F58220;}
	.st3{fill-rule:evenodd;clip-rule:evenodd;fill:#FFFFFF;}
</style><polygon class="st0" points="135.3 36.3 134.9 28.9 145.5 23.9 146.6 30.5 145.4 38.4 139.8 44.4 135.1 46 129.3 47 119 44.3 110 46.1 71.6 42.5 73.3 38.3 92.6 37 114 36.8 115.1 27.6 120.2 21.3 123.9 34.5 124.3 35.8 126 36.6 132.3 36.9 "/><path class="st0" d="M87.7 22.5c-0.9 3.4-2.4 7.1-4.8 10.7l-15.1 2 -6.7-0.5 -4.6-0.4 -0.8 4.2 -3.8 5.6 -6.6 4.1 -27.2-3.3 -14.7-3L16 44l6.2-1.5 16.4-2.6 8.5-6.3 0-17.5 8.4 2 0.8 2 0.2 5.2 1.9 1.2 4.2-0.1 8.9-1.4L83 22.6 87.7 22.5z"/><path class="st0" d="M85.2 3.8L32.6 9.5 31 12.2l1.9 1.5 7.1 6 4.8 6.6 -0.4 4.9L41 34.8l-7.2 1.5c-4.7 0.1-9.1 0.7-13.8 0.9 -2.9 0.1-5.9-0.3-8.8-0.2 -3.2-0.6-6-1.1-9.4-4.7L0.5 25l1.7-6 6.6-3.2L7.1 27.6l6.7 0.8 7.3 0.2 8.1-0.2 5.8-0.3 -0.6-2L31.4 23l-7.6-7 -5.4-6.6 1.4-3.6 3.3-0.4 12.9-1.3 24.3-2.3L85.2 3.8z"/><path class="st1" d="M2.5 41.8c2.7 1.5 4 1.8 7.1 2.3l24.7 3.4c6.1 0.9 10.3 2 15.5-1.1 3.4-2.1 6.5-6 7.3-11.5 6 1.1 7.1 1.3 13.8 0.3 3.9-0.6 7.8-1.5 11.6-2.1 1.2-0.2 1 0.1 1.1-1l-0.3-0.1c-0.9-0.2-5.7 0.6-6.6 0.7l-13.9 1.9c-1.1 0.1-2.5-0.1-3.5-0.3 -1.2-0.3-2.5-1-3-0.8 -0.8 4.1-1.6 6.8-3.9 9.3C46 49.4 39.8 47.2 31.5 46c-1.9-0.3-10.4-1.4-11.6-1.8l24-4.4c1.7-0.6 3.2-1.8 3.9-3.2 0.9-1.7 0.7-3.9 0.6-6 -0.1-4.6-0.3-9.5-0.2-14.1 1.7 0.3 6.3 1.6 7.5 1.5 -2.7-0.8-5.8-1.7-8.6-2.6 -0.3 2.1 0 6.5-0.1 9.1 -0.5 8.6-2.5 13.3-12.3 15.6l-19.9 3.3C13.1 43.6 5.4 41.9 2.5 41.8z"/><path class="st1" d="M137.1 28.3l7.6-3.7c0.8 1 1.2 3.9 1.4 5.3 0.5 5.6-1.7 11-6 13.9 -2.7 1.9-6.4 3-10.5 2.6 -2-0.2-3.7-0.7-5.4-1.2 -0.9-0.3-4.3-1.9-4.8-1.9 -0.2 0-1.8 0.8-2.3 1 -10.6 3.7-33.5-2.6-45.2-2.8l-0.6 2c1.9 0.3 4.2 0.3 6.2 0.5l18.2 2.1c5.5 0.5 13.4 1.1 19 0 1.2-0.2 4.7-1.6 5.2-1.5 1 0.2 4.5 2.7 11 2.4 3.9-0.2 7.7-1.2 10.6-2.8 7.7-4.2 4.8-14.7 4.4-20.8l-12 3.6c-0.1 1.5 0.1 3 0.2 4.5 0.1 1.8 0.5 3.2-0.8 4.1 -1.9 1.3-5.9 1.2-7.9 0.1 -1.2-0.7-1.1-1.6-1.5-3.2L121 22.1c-0.2-0.8 0-0.8-1.3-0.8l3.4 13c1.4 4.7 8.6 3.8 12.4 3.1 1.7-0.3 1.8-1.2 1.8-3.6C137.3 31.9 137.1 30.2 137.1 28.3z"/><path class="st1" d="M17.3 8.2c0 3 3.2 5.8 5.4 7.6 1.8 1.5 11 9.8 10.3 11.5 -0.5 1.1-4.6 0.9-5.8 0.9 -3.6 0-7.4-0.2-11-0.4 -4.8-0.2-7.7 1.5-7.3-5.3l0.8-7.5c-2.2 0.7-4.9 2.2-7.1 3.1C1 18.7 1 19.9 0.6 21.3c-1 3.9-1.1 10.3 2.5 12.4 -1.3-2-2-3-2-6.2 0-2.7 0.6-5.1 1.4-7.5 0.7-2.3 1.7-1.8 5.1-3.8 -0.4 6-5.4 12.8 0.5 12.8l22.7-0.3c2.2 0 5.1 0.5 5.9-1.2 0.1-0.6-4.1-4.5-4.8-5.2 -1.7-1.7-3.4-3.2-5.1-4.8 -0.8-0.8-1.5-1.6-2.4-2.5 -1.3-1.4-4.8-4.1-4.5-5 0.2-0.8 1.2-3.1 1.5-3.6l39.5-4.7L26.1 4.2C22.4 4.5 17.3 3.9 17.3 8.2z"/><path class="st1" d="M29.9 11.1c1.7 1.6 3.3 3.2 5.1 4.7l5.1 4.7c1.4 1.2 3.4 3.4 4 5.8 0.7 3-0.6 5.8-2.2 7.2 -2 1.6-4.2 2.2-7.4 2.3 -3 0.1-6.1 0.4-9 0.7 -3.5 0.3-12.6 1.1-16.1 0.2 -0.7-0.2-1.2-0.4-2-0.5 0.7 0.4 3 0.7 3.9 0.9 6.3 1.3 16.8 0.1 23.4-0.1 3.5-0.1 5.3-0.5 7.6-2.3 4.1-3.2 4-9.8 0.1-13.4 -2.7-2.4-1.7-1.8-5.3-4.5 -0.9-0.7-1.8-1.4-2.7-2.2 -0.7-0.6-2.1-1.7-1.9-3.2 1-1.4 3.9-1.4 6-1.6 2.4-0.2 4.8-0.4 7.1-0.7 4.7-0.4 9.4-0.9 14.2-1.3 9.4-0.8 19.1-1.5 28.4-2.6 -0.5-0.5-2.5-1.2-2.9-1.3 -0.9-0.2-9.9 1-11.2 1.1C69 5.5 64 6.1 59 6.6L32.6 9.5C30.7 9.7 30.5 9.5 29.9 11.1z"/><path class="st2" d="M134.4 11.9c-2.3 0.4-9.3 2.3-6.4-2.3 0.7-1.1 2.3-1.9 4-1.1C133.3 9.1 134.1 10.3 134.4 11.9L134.4 11.9zM136.9 14.6c-1.2 0.6-1.4 2-4.7 2.7 -2.4 0.5-4.9-0.2-5-2.3 2-1.8 6.9-1.5 9.7-2.1 -0.4-3.4-2.3-6-5.3-6.6 -3.7-0.8-6.1 2.4-6.6 5.5 -0.6 3.8 1.6 6.8 4.7 7.4C132.4 19.7 137.1 19.2 136.9 14.6z"/><path class="st1" d="M91.3 22.8c3.7-1.1 10.9 6.5 5.1 8.3C88.4 33.5 87 24.1 91.3 22.8L91.3 22.8zM105.7 22.6c-4.4 1.2-9.3 8.5-1.3 8.6 2.9 0 4.9-1.4 5.2-4C109.9 24.5 108.6 21.9 105.7 22.6L105.7 22.6zM99.2 25.6c-1.8-6.1-11.6-4.8-11.3 1.7 0.2 6.1 9.5 7.3 11.4 1 1.2 2.6 3.2 4.3 6.3 4 2.8-0.3 5.1-2.4 5.1-5.4 0-3-2.3-5.2-5.1-5.4C101.3 21.1 100.3 24 99.2 25.6z"/><path class="st3" d="M62.3 38.2c-6.8 1.3-0.2 8.9 3.7 8.7C70.1 46.7 70.4 36.6 62.3 38.2z"/><path class="st3" d="M91.3 22.8c-4.2 1.3-2.9 10.6 5.1 8.3C102.2 29.3 94.9 21.7 91.3 22.8z"/><path class="st3" d="M105.7 22.6c-4.4 1.2-9.3 8.5-1.3 8.6 2.9 0 4.9-1.4 5.2-4C109.9 24.5 108.6 21.9 105.7 22.6z"/><path class="st1" d="M73.3 38.3c3.6 0.4 20.9-0.3 26.3-0.3 4.2 0 8.8-0.1 13.1-0.2 2.9-0.1 2.8-1.2 2.7-3.9 0-2.2 0-4.5-0.2-6.7 0 0-0.1 0.1-0.1 0.2 0 0.1 0 0.1-0.1 0.2 0 0 0 0.1 0 0.2l-0.1 0.9c-0.1 0.5-0.1 1-0.2 1.5 -0.5 2.5-1.5 5.2-4.4 5.5 -4 0.5-8.4 0.6-12.4 0.9 -4.2 0.3-8.3 0.6-12.4 0.9L73.3 38.3z"/><path class="st1" d="M0.7 65.3c1.6 0.5 1.4-0.4 1.5-1.9 0.1-1.2 0.1-2.4 0.2-3.7 0-1.9-0.1-5.2 0.2-7 0.9 2.1 4 11.9 4.5 12.5 1.8 0.2 1.4-0.3 1.4-2.1l0-7c0-0.7 0.2-2.6-0.3-3 -0.6 1.9 0 6.3-1.3 7.7 -0.8-0.6-2.3-5-2.8-6.3 -0.4-1.1-0.8-2.1-1.3-3.2 -0.6-1.6-0.4-1.8-2.3-2C0.3 51.5 0.2 64.2 0.7 65.3z"/><path class="st1" d="M128.9 60.6c-2 1.6-5.8-0.2-5.1-2.4 0.4-1.1 2.2-0.3 3 0.1C127.8 58.8 128.8 59.4 128.9 60.6L128.9 60.6zM124 64.1c-0.1-2.3 3.6-0.6 5.3-2.1 1.3-1.2 1.1-4.1-0.2-5.1 -1.4-1-4.9-0.9-6 0.3 -1.4 1.4-1.1 4.3 0.5 5 -0.6 0.5-0.8 0.3-1.1 1.1 -0.7 2 0.9 2.6 2.8 2.9 2.8 0.4 4.2 0.8 2.9 3.9 1.2-0.2 2.5-3.2 1.1-4.4C128.1 64.6 125.2 65.2 124 64.1z"/><path class="st1" d="M65 57.9c2-0.9 2.2 1.8 2.1 3.4 -0.1 2.1-0.8 2.7-2.8 2.9C59.8 64.4 63.1 58.7 65 57.9L65 57.9zM60.7 50.9c0 3.2 0 6.5 0 9.7 0 3.6 0.8 5.3 4.8 4.9 1.7-0.2 2.4-0.6 2.9-2 0.3-1.1 0.4-3.2 0.2-4.3 -0.7-4.3-2.8-2.7-6.3-2.8l-0.9-4.2C61 51.1 61.2 51.3 60.7 50.9z"/><path class="st1" d="M87.7 22.5c-0.5-1.2-3.1-0.7-4.3-0.5 -3.7 0.5-10 2-13.5 2.9 -3.3 0.8-6.1 1.4-9.8 1.3 -4.4-0.2-2.6-2-3.9-6.4L56 19.1c-0.1 1.6-0.1 4 0 5.5 0.3 4.6 10.6 2 13 1.5 3.1-0.6 6.1-1.3 9.3-1.9C80.1 23.9 86.6 22.9 87.7 22.5z"/><path class="st2" d="M22.7 60.1c-0.6-3.7 4.7-4 5.1-0.3 -0.7 0.5-2.6 0.7-3.7 0.7C23.5 60.5 23.1 60.3 22.7 60.1L22.7 60.1zM29.8 62c-1 0.5-1.2 1.4-3.1 1.9 -1.4 0.4-3.2 0.2-3.9-0.7 -1.2-1.4 1.5-1.7 2.5-1.9 1.5-0.2 2.9-0.4 4.4-0.6 0.7-5.2-8.1-7.9-8.9-0.7C20 66.9 30.2 67 29.8 62z"/><path class="st1" d="M89 63.1c-0.9 1.5-5.9 1.5-4-1.1C86.8 59.5 90.1 61.2 89 63.1L89 63.1zM83.3 59l1.1 0c0.6-1.4 1-1.6 2.8-1.4 1.5 0.2 1.7 0.9 1.7 2.5 -7.1-3-8.2 4.4-4.2 5.2 1.4 0.3 3.4 0.3 4.5-0.4 1.2-0.8 1.2-2.2 1.2-3.8 0-1.8 0.2-3-1-4C87.5 55.4 82.2 56.1 83.3 59z"/><path class="st1" d="M56.1 0.8L18.8 0c3.5 2.6 3.5 2 7.9 1.9l28.9-0.8C56.2 0.9 55.9 1 56.1 0.8z"/><path class="st1" d="M62.3 38.2c8.1-1.6 7.9 8.5 3.7 8.7C62 47.1 55.5 39.5 62.3 38.2L62.3 38.2zM62.9 37c-2.8 0.6-5.3 3.1-4.4 6.6 1.7 6.6 12.9 4.7 11.3-2.5C69.2 38.5 66.2 36.4 62.9 37z"/><path class="st3" d="M65 57.9c-1.8 0.8-5.1 6.5-0.7 6.3 2.1-0.1 2.8-0.8 2.8-2.9C67.1 59.7 66.9 57 65 57.9z"/><path class="st3" d="M134.4 11.9c-0.3-1.6-1.1-2.8-2.3-3.4 -1.7-0.8-3.4 0-4 1.1C125.1 14.3 132.1 12.4 134.4 11.9z"/><path class="st1" d="M144.3 62.3c1 0 0.9-0.1 1-1.1l0.3-5.8c0.1-1.1 0.7-7.3 0.3-7.8 -0.4 0.5-2.3 7.1-2.3 8.2 0 1.2 0.1 2.5 0.1 3.7C143.8 61.4 143.4 62.3 144.3 62.3z"/><path class="st1" d="M41.7 57.2c0 0.7 0.2 0.5 1.3 0.5 0 2.3-0.3 5 0.4 6.9 0.8 0.2 2.8 0.7 3.4 0.5 -2.5-1.1-2.3-0.4-2.5-3.6 -0.3-5.7 2.8-2.2 1.8-5.2l-1.7 0 -0.1-2.1C44 54 43.5 53.8 43 53.6l-0.1 2.7C41.8 56.3 41.7 56.2 41.7 57.2z"/><path class="st1" d="M105 65.3c1.7 0.5 1.3-0.5 1.3-2 0-1.1 0-2.4 0-3.5 0.1-3 1.7-2.4 3.5-3.5 -0.4-0.4 0.1-0.2-0.7-0.2l-2.3 0.4c-1.2 0.2-1.7 0.5-1.9 1.8C104.7 59.5 104.7 64.5 105 65.3z"/><path class="st3" d="M22.7 60.1c0.4 0.3 0.8 0.4 1.5 0.4 1 0 2.9-0.2 3.7-0.7C27.4 56.1 22.2 56.4 22.7 60.1z"/><path class="st3" d="M128.9 60.6c-0.1-1.2-1.1-1.8-2-2.3 -0.8-0.4-2.6-1.2-3-0.1C123.1 60.4 126.9 62.2 128.9 60.6z"/><path class="st3" d="M89 63.1c1.1-1.8-2.2-3.6-4-1.1C83.1 64.6 88.2 64.5 89 63.1z"/><path class="st1" d="M145.8 64.8l-1.1-0.3c-0.7-0.1-0.7-0.1-1.3 0 -0.1 2.2-0.3 2.2 2.1 2L145.8 64.8z"/></svg>